<?xml version="1.0" encoding="UTF-8"?>
<svg width="16px" height="16px" viewBox="0 0 16 16" version="1.1" xmlns="http://www.w3.org/2000/svg" xmlns:xlink="http://www.w3.org/1999/xlink">
    <!-- Generator: Sketch 51.3 (57544) - http://www.bohemiancoding.com/sketch -->
    <title>Icons / Feather / alert-circle</title>
    <desc>Created with Sketch.</desc>
    <defs>
        <path d="M8,15.3333333 C3.94991183,15.3333333 0.666666667,12.0500882 0.666666667,8 C0.666666667,3.94991183 3.94991183,0.666666667 8,0.666666667 C12.0500882,0.666666667 15.3333333,3.94991183 15.3333333,8 C15.3333333,12.0500882 12.0500882,15.3333333 8,15.3333333 Z M8,14 C11.3137085,14 14,11.3137085 14,8 C14,4.6862915 11.3137085,2 8,2 C4.6862915,2 2,4.6862915 2,8 C2,11.3137085 4.6862915,14 8,14 Z M7.33333333,5.33333333 C7.33333333,4.9651435 7.63181017,4.66666667 8,4.66666667 C8.36818983,4.66666667 8.66666667,4.9651435 8.66666667,5.33333333 L8.66666667,8 C8.66666667,8.36818983 8.36818983,8.66666667 8,8.66666667 C7.63181017,8.66666667 7.33333333,8.36818983 7.33333333,8 L7.33333333,5.33333333 Z M7.52859548,10.4714045 C7.26824595,10.211055 7.26824595,9.78894501 7.52859548,9.52859548 C7.78894501,9.26824595 8.21105499,9.26824595 8.47140452,9.52859548 C8.73175405,9.78894501 8.73175405,10.211055 8.47140452,10.4714045 C8.21105499,10.731754 7.78894501,10.731754 7.52859548,10.4714045 Z" id="path-1"></path>
    </defs>
    <g id="Page-1" stroke="none" stroke-width="1" fill="none" fill-rule="evenodd">
        <g id="Dashboard_Qualidade" transform="translate(-58.000000, -671.000000)">
            <g id="Icons-/-Feather-/-alert-circle" transform="translate(66.000000, 679.000000) scale(-1, -1) translate(-66.000000, -679.000000) translate(58.000000, 671.000000)">
                <mask id="mask-2" fill="white">
                    <use xlink:href="#path-1"></use>
                </mask>
                <use id="Combined-Shape" fill="#000000" fill-rule="nonzero" xlink:href="#path-1"></use>
                <g id="Color-/-Black" mask="url(#mask-2)" fill="#333333" fill-rule="evenodd">
                    <rect id="Rectangle" x="0" y="0" width="16" height="16"></rect>
                </g>
            </g>
        </g>
    </g>
</svg>