<?xml version="1.0" encoding="UTF-8"?>
<svg width="13px" height="14px" viewBox="0 0 13 14" version="1.1" xmlns="http://www.w3.org/2000/svg" xmlns:xlink="http://www.w3.org/1999/xlink">
    <!-- Generator: Sketch 51.3 (57544) - http://www.bohemiancoding.com/sketch -->
    <title>Icons/ calendar</title>
    <desc>Created with Sketch.</desc>
    <defs>
        <path d="M11.7,5.09090909 L11.7,3.18181818 C11.7,2.83036425 11.4089851,2.54545455 11.05,2.54545455 L9.75,2.54545455 L9.75,3.18181818 C9.75,3.53327211 9.45898509,3.81818182 9.1,3.81818182 C8.74101491,3.81818182 8.45,3.53327211 8.45,3.18181818 L8.45,2.54545455 L4.55,2.54545455 L4.55,3.18181818 C4.55,3.53327211 4.25898509,3.81818182 3.9,3.81818182 C3.54101491,3.81818182 3.25,3.53327211 3.25,3.18181818 L3.25,2.54545455 L1.95,2.54545455 C1.59101491,2.54545455 1.3,2.83036425 1.3,3.18181818 L1.3,5.09090909 L11.7,5.09090909 Z M11.7,6.36363636 L1.3,6.36363636 L1.3,12.0909091 C1.3,12.442363 1.59101491,12.7272727 1.95,12.7272727 L11.05,12.7272727 C11.4089851,12.7272727 11.7,12.442363 11.7,12.0909091 L11.7,6.36363636 Z M4.55,1.27272727 L8.45,1.27272727 L8.45,0.636363636 C8.45,0.284909705 8.74101491,0 9.1,0 C9.45898509,0 9.75,0.284909705 9.75,0.636363636 L9.75,1.27272727 L11.05,1.27272727 C12.1269553,1.27272727 13,2.12745639 13,3.18181818 L13,12.0909091 C13,13.1452709 12.1269553,14 11.05,14 L1.95,14 C0.873044738,14 1.44328993e-16,13.1452709 0,12.0909091 L0,3.18181818 C-1.44328993e-16,2.12745639 0.873044738,1.27272727 1.95,1.27272727 L3.25,1.27272727 L3.25,0.636363636 C3.25,0.284909705 3.54101491,0 3.9,0 C4.25898509,0 4.55,0.284909705 4.55,0.636363636 L4.55,1.27272727 Z" id="path-1"></path>
    </defs>
    <g id="Page-1" stroke="none" stroke-width="1" fill="none" fill-rule="evenodd">
        <g id="Dashboard_0" transform="translate(-1249.000000, -258.000000)">
            <g id="Icons/-calendar" transform="translate(1249.000000, 258.000000)">
                <mask id="mask-2" fill="white">
                    <use xlink:href="#path-1"></use>
                </mask>
                <use id="Combined-Shape" fill="#4A4A4A" fill-rule="nonzero" xlink:href="#path-1"></use>
            </g>
        </g>
    </g>
</svg>