<svg width="224" height="224" viewBox="0 0 224 224" fill="none" xmlns="http://www.w3.org/2000/svg">
<path fill-rule="evenodd" clip-rule="evenodd" d="M126.932 167.863C101.789 166.565 89.6176 199.243 60.7654 171.582C42.8587 154.415 55.1226 133.068 52.9557 121.449C50.2222 106.791 28.6326 99.5071 38.4634 76.9357C46.2571 59.0413 59.969 64.027 72.1406 63.4645C89.2494 62.6739 95.879 43.5015 116.432 34.0468C136.986 24.5921 181.982 54.7012 169.917 91.1292C162.531 113.432 194.494 121.095 181.283 150.339C168.072 179.582 148.647 168.983 126.932 167.863Z" fill="#EBEAF9"/>
<path fill-rule="evenodd" clip-rule="evenodd" d="M72.7998 60H131.428L154.88 83.4131V165.84H72.7998V60Z" fill="white"/>
<path fill-rule="evenodd" clip-rule="evenodd" d="M155.2 82.8H140.53C136.046 82.8 132 78.7544 132 74.2699V59.6L155.2 82.8Z" fill="#320056"/>
<rect x="91.6797" y="108.204" width="12.96" height="2.88" rx="1.44" transform="rotate(-45 91.6797 108.204)" fill="#320056"/>
<rect x="93.7163" y="99.0397" width="12.96" height="2.88" rx="1.44" transform="rotate(45 93.7163 99.0397)" fill="#320056"/>
<rect x="124.8" y="108.204" width="12.96" height="2.88" rx="1.44" transform="rotate(-45 124.8 108.204)" fill="#320056"/>
<rect x="126.836" y="99.0397" width="12.96" height="2.88" rx="1.44" transform="rotate(45 126.836 99.0397)" fill="#320056"/>
<rect x="100.16" y="124.8" width="28.08" height="2.88" rx="1.44" fill="#320056"/>
</svg>
