<svg width="29" height="34" viewBox="0 0 29 34" fill="none" xmlns="http://www.w3.org/2000/svg">
<path d="M8.94534 20.7573C8.36647 20.7573 7.91826 20.9757 7.60071 21.4123C7.28316 21.8456 7.12438 22.451 7.12438 23.2283C7.12438 24.8458 7.73137 25.6546 8.94534 25.6546C9.45475 25.6546 10.0717 25.5272 10.7961 25.2725V26.5626C10.2007 26.8107 9.53579 26.9347 8.80145 26.9347C7.74625 26.9347 6.93914 26.6155 6.38012 25.9771C5.82109 25.3354 5.54158 24.4158 5.54158 23.2184C5.54158 22.4642 5.67885 21.8043 5.9534 21.2386C6.22796 20.6697 6.62159 20.2347 7.1343 19.9337C7.65033 19.6294 8.25401 19.4772 8.94534 19.4772C9.64991 19.4772 10.3578 19.6476 11.069 19.9883L10.5728 21.2386C10.3016 21.1096 10.0287 20.9972 9.75411 20.9012C9.47956 20.8053 9.20997 20.7573 8.94534 20.7573ZM16.6261 24.821C16.6261 25.476 16.3896 25.992 15.9166 26.3691C15.4469 26.7462 14.7919 26.9347 13.9518 26.9347C13.1777 26.9347 12.493 26.7892 11.8976 26.4981V25.0691C12.3871 25.2874 12.8006 25.4412 13.138 25.5306C13.4787 25.6199 13.7897 25.6645 14.0708 25.6645C14.4082 25.6645 14.6662 25.6 14.8449 25.471C15.0268 25.342 15.1178 25.1502 15.1178 24.8955C15.1178 24.7532 15.0781 24.6275 14.9987 24.5184C14.9193 24.4059 14.8019 24.2984 14.6464 24.1958C14.4942 24.0933 14.1817 23.9296 13.7086 23.7046C13.2654 23.4962 12.9329 23.2961 12.7113 23.1043C12.4897 22.9124 12.3127 22.6891 12.1804 22.4344C12.0481 22.1797 11.9819 21.882 11.9819 21.5413C11.9819 20.8996 12.1986 20.3951 12.6319 20.028C13.0686 19.6608 13.6706 19.4772 14.438 19.4772C14.8151 19.4772 15.174 19.5219 15.5147 19.6112C15.8587 19.7005 16.2176 19.8262 16.5914 19.9883L16.0952 21.1841C15.7082 21.0253 15.3874 20.9145 15.1327 20.8516C14.8813 20.7888 14.6332 20.7573 14.3884 20.7573C14.0973 20.7573 13.874 20.8252 13.7186 20.9608C13.5631 21.0964 13.4854 21.2734 13.4854 21.4917C13.4854 21.6273 13.5168 21.7464 13.5796 21.8489C13.6425 21.9482 13.7417 22.0457 13.8773 22.1417C14.0163 22.2343 14.3421 22.403 14.8548 22.6478C15.5329 22.9719 15.9977 23.2978 16.249 23.6252C16.5004 23.9494 16.6261 24.348 16.6261 24.821ZM22.0791 19.5814H23.6321L21.1662 26.8355H19.4891L17.028 19.5814H18.5811L19.9456 23.8981C20.0216 24.1528 20.0994 24.4505 20.1788 24.7913C20.2615 25.1287 20.3127 25.3635 20.3326 25.4958C20.369 25.1915 20.493 24.6589 20.7047 23.8981L22.0791 19.5814Z" fill="white"/>
<path fill-rule="evenodd" clip-rule="evenodd" d="M17.1529 0L28.5882 11.178V29.6217C28.5882 31.7824 26.7963 33.534 24.5859 33.534H4.00235C1.79191 33.534 0 31.7824 0 29.6217V3.9123C0 1.7516 1.79191 0 4.00235 0H17.1529Z" fill="#219B72"/>
<path fill-rule="evenodd" clip-rule="evenodd" d="M28.5884 11.178H21.3576C19.1471 11.178 17.1531 9.2288 17.1531 7.0681V1.90735e-06L28.5884 11.178Z" fill="#320056"/>
<path d="M12.0117 26.8355H10.2552L8.56825 24.0916L6.88125 26.8355H5.23395L7.6404 23.0943L5.38776 19.5814H7.08468L8.64764 22.1913L10.1808 19.5814H11.838L9.5606 23.1787L12.0117 26.8355ZM12.9247 26.8355V19.5814H14.4628V25.5653H17.4051V26.8355H12.9247ZM22.9524 24.821C22.9524 25.476 22.7159 25.992 22.2429 26.3691C21.7731 26.7462 21.1182 26.9347 20.278 26.9347C19.504 26.9347 18.8192 26.7892 18.2238 26.4981V25.0691C18.7134 25.2874 19.1269 25.4412 19.4643 25.5306C19.805 25.6199 20.1159 25.6645 20.3971 25.6645C20.7345 25.6645 20.9925 25.6 21.1711 25.471C21.353 25.342 21.444 25.1502 21.444 24.8955C21.444 24.7532 21.4043 24.6275 21.3249 24.5184C21.2455 24.4059 21.1281 24.2984 20.9726 24.1958C20.8205 24.0933 20.5079 23.9296 20.0349 23.7046C19.5916 23.4962 19.2592 23.2961 19.0376 23.1043C18.8159 22.9124 18.639 22.6891 18.5066 22.4344C18.3743 22.1797 18.3082 21.882 18.3082 21.5413C18.3082 20.8996 18.5248 20.3951 18.9582 20.028C19.3948 19.6608 19.9968 19.4772 20.7642 19.4772C21.1413 19.4772 21.5002 19.5219 21.8409 19.6112C22.185 19.7005 22.5439 19.8262 22.9177 19.9883L22.4215 21.1841C22.0345 21.0253 21.7136 20.9145 21.4589 20.8516C21.2075 20.7888 20.9594 20.7573 20.7146 20.7573C20.4235 20.7573 20.2003 20.8252 20.0448 20.9608C19.8893 21.0964 19.8116 21.2734 19.8116 21.4917C19.8116 21.6273 19.843 21.7464 19.9059 21.8489C19.9687 21.9482 20.0679 22.0457 20.2036 22.1417C20.3425 22.2343 20.6683 22.403 21.181 22.6478C21.8591 22.9719 22.3239 23.2978 22.5753 23.6252C22.8267 23.9494 22.9524 24.348 22.9524 24.821Z" fill="white"/>
</svg>
