<?xml version="1.0" encoding="UTF-8"?>
<svg width="16px" height="14px" viewBox="0 0 16 14" version="1.1" xmlns="http://www.w3.org/2000/svg" xmlns:xlink="http://www.w3.org/1999/xlink">
    <defs>
        <path d="M12.3905243,8.66666667 L6,8.66666667 C5.63181017,8.66666667 5.33333333,8.36818983 5.33333333,8 C5.33333333,7.63181017 5.63181017,7.33333333 6,7.33333333 L12.3905243,7.33333333 L10.8619288,5.80473785 C10.6015793,5.54438833 10.6015793,5.12227834 10.8619288,4.86192881 C11.1222783,4.60157928 11.5443883,4.60157928 11.8047379,4.86192881 L14.4714045,7.52859548 C14.731754,7.78894501 14.731754,8.21105499 14.4714045,8.47140452 L11.8047379,11.1380712 C11.5443883,11.3984207 11.1222783,11.3984207 10.8619288,11.1380712 C10.6015793,10.8777217 10.6015793,10.4556117 10.8619288,10.1952621 L12.3905243,8.66666667 Z M6.66666667,14 C7.0348565,14 7.33333333,14.2984768 7.33333333,14.6666667 C7.33333333,15.0348565 7.0348565,15.3333333 6.66666667,15.3333333 L3.33333333,15.3333333 C2.22876383,15.3333333 1.33333333,14.4379028 1.33333333,13.3333333 L1.33333333,2.66666667 C1.33333333,1.56209717 2.22876383,0.666666667 3.33333333,0.666666667 L6.66666667,0.666666667 C7.0348565,0.666666667 7.33333333,0.9651435 7.33333333,1.33333333 C7.33333333,1.70152317 7.0348565,2 6.66666667,2 L3.33333333,2 C2.9651435,2 2.66666667,2.29847683 2.66666667,2.66666667 L2.66666667,13.3333333 C2.66666667,13.7015232 2.9651435,14 3.33333333,14 L6.66666667,14 Z" id="path-export"></path>
    </defs>
    <g id="Page-1" stroke="none" stroke-width="1" fill="none" fill-rule="evenodd">
        <g id="Relatório_1" transform="translate(-1091.000000, -166.000000)">
            <g id="Icons-/-Feather-/-log-out" transform="translate(1099.000000, 173.000000) scale(1, -1) rotate(90.000000) translate(-1099.000000, -173.000000) translate(1091.000000, 165.000000)">
                <mask id="mask-2-export" fill="white">
                    <use xlink:href="#path-export"></use>
                </mask>
                <use id="Combined-Shape" fill="#000000" fill-rule="nonzero" xlink:href="#path-export"></use>
                <g id="COLOR/-black" mask="url(#mask-2-export)" fill="#333333">
                    <rect id="Rectangle" x="0" y="0" width="16" height="16"></rect>
                </g>
            </g>
        </g>
    </g>
</svg>
