<?xml version="1.0" encoding="UTF-8"?>
<svg width="143px" height="131px" viewBox="0 0 143 131" version="1.1" xmlns="http://www.w3.org/2000/svg" xmlns:xlink="http://www.w3.org/1999/xlink">
    <!-- Generator: Sketch 56 (81588) - https://sketch.com -->
    <g id="Page-1" stroke="none" stroke-width="1" fill="none" fill-rule="evenodd">
        <g id="Relatório_erro" transform="translate(-611.000000, -520.000000)">
            <g id="Group-2" transform="translate(612.000000, 521.000000)">
                <path d="M4.16000003,4 L124.785537,4 C125.978472,4 126.945537,4.96706495 126.945537,6.16000003 C126.945537,6.17792751 126.945314,6.1958543 126.944868,6.21377622 L124.339167,110.843138 C124.309989,112.01476 123.351823,112.949361 122.179837,112.949361 L78.8174795,112.949361 L63.9612069,127 C54.3239264,117.632908 45.4748999,112.949361 37.4141274,112.949361 C29.7494934,112.949361 18.6998647,113.301394 4.26524126,114.00546 C3.07371778,114.063588 2.06068284,113.14478 2.00256488,111.953256 C2.00085521,111.918205 2,111.883117 2,111.848025 L2,6.16000003 C2,4.96706495 2.96706495,4 4.16000003,4 Z" id="Rectangle" fill="#FFFFFF"></path>
                <g id=":D">
                    <path d="M89.7992679,52.8635229 L86.6265696,49.6908246 C85.8717268,48.9359818 85.8668206,47.7170461 86.6273725,46.9564942 C87.3826587,46.201208 88.6134804,46.2074688 89.361703,46.9556913 L92.5344012,50.1283896 L95.7070995,46.9556913 C96.4619423,46.2008485 97.680878,46.1959423 98.4414299,46.9564942 C99.1967161,47.7117804 99.1904554,48.9426021 98.4422328,49.6908246 L95.2695346,52.8635229 L98.4422328,56.0362211 C99.1970756,56.7910639 99.2019819,58.0099997 98.4414299,58.7705516 C97.6861437,59.5258378 96.455322,59.519577 95.7070995,58.7713545 L92.5344012,55.5986562 L89.361703,58.7713545 C88.6068602,59.5261973 87.3879244,59.5311035 86.6273725,58.7705516 C85.8720863,58.0152654 85.8783471,56.7844437 86.6265696,56.0362211 L89.7992679,52.8635229 Z M33.2504671,52.8635229 L30.0777689,49.6908246 C29.3229261,48.9359818 29.3180198,47.7170461 30.0785718,46.9564942 C30.833858,46.201208 32.0646797,46.2074688 32.8129022,46.9556913 L35.9856005,50.1283896 L39.1582987,46.9556913 C39.9131415,46.2008485 41.1320773,46.1959423 41.8926292,46.9564942 C42.6479154,47.7117804 42.6416546,48.9426021 41.8934321,49.6908246 L38.7207338,52.8635229 L41.8934321,56.0362211 C42.6482749,56.7910639 42.6531811,58.0099997 41.8926292,58.7705516 C41.137343,59.5258378 39.9065213,59.519577 39.1582987,58.7713545 L35.9856005,55.5986562 L32.8129022,58.7713545 C32.0580594,59.5261973 30.8391237,59.5311035 30.0785718,58.7705516 C29.3232856,58.0152654 29.3295464,56.7844437 30.0777689,56.0362211 L33.2504671,52.8635229 Z M124.664402,73.4931904 C124.664402,72.4250544 125.527507,71.559159 126.592202,71.559159 C127.656896,71.559159 128.520002,72.4250544 128.520002,73.4931904 L128.520002,108.303206 C128.520002,112.576193 125.063751,116.04188 120.807117,116.04188 L78.2947837,116.04188 L81.0211047,114.90895 L69.7131676,126.253438 C66.7012199,129.275122 61.8195815,129.275924 58.8068341,126.253438 L47.498897,114.90895 L50.225218,116.04188 L7.7128842,116.04188 C3.45320201,116.04188 0,112.576039 0,108.303206 L0,7.73867303 C0,3.46568605 3.45625048,0 7.7128842,0 L120.807117,0 C125.0668,0 128.520002,3.46584008 128.520002,7.73867303 L128.520002,18.050959 C128.520002,19.119095 127.656896,19.9849904 126.592202,19.9849904 C125.527507,19.9849904 124.664402,19.119095 124.664402,18.050959 L124.664402,7.73867303 C124.664402,5.60213865 122.937437,3.86806265 120.807117,3.86806265 L7.7128842,3.86806265 C5.58660154,3.86806265 3.85560005,5.60099395 3.85560005,7.73867303 L3.85560005,108.303206 C3.85560005,110.439741 5.58256499,112.173817 7.7128842,112.173817 L50.225218,112.173817 L61.5331551,123.518305 C63.0404436,125.030466 65.4808513,125.029168 66.9868466,123.518305 L78.2947837,112.173817 L120.807117,112.173817 C122.9334,112.173817 124.664402,110.440886 124.664402,108.303206 L124.664402,73.4931904 Z M45.6246006,81.2293157 C45.6246006,80.1611797 46.4910258,79.2952843 47.5499577,79.2952843 L80.970044,79.2952843 C82.0333894,79.2952843 82.8954011,80.1537328 82.8954011,81.2293157 C82.8954011,82.2974517 82.0289759,83.163347 80.970044,83.163347 L47.5499577,83.163347 C46.4866123,83.163347 45.6246006,82.3048985 45.6246006,81.2293157 Z" id="Shape" stroke="#9DA19F" stroke-width="1.08000001" fill="#9DA19F" fill-rule="nonzero"></path>
                    <path d="M129.060002,64.2600009 C134.672219,64.2600009 141.480002,61.8949568 141.480002,51.4567749 C141.480002,41.018593 130.189093,26.4600004 129.060002,26.4600004 C127.930911,26.4600004 116.640002,41.018593 116.640002,51.4567749 C116.640002,61.8949568 123.447784,64.2600009 129.060002,64.2600009 Z" id="Oval-123" fill="#59A1D0"></path>
                </g>
            </g>
        </g>
    </g>
</svg>