<?xml version="1.0" encoding="UTF-8"?>
<svg width="22px" height="22px" viewBox="0 0 22 22" version="1.1" xmlns="http://www.w3.org/2000/svg" xmlns:xlink="http://www.w3.org/1999/xlink">
    <!-- Generator: Sketch 51.3 (57544) - http://www.bohemiancoding.com/sketch -->
    <title>icon_ruim</title>
    <desc>Created with Sketch.</desc>
    <defs></defs>
    <g id="Page-1" stroke="none" stroke-width="1" fill="none" fill-rule="evenodd">
        <g id="icon_ruim" fill="#C86D61" fill-rule="nonzero">
            <path d="M11,22 C4.92487,22 0,17.07513 0,11 C0,4.92487 4.92487,0 11,0 C17.07513,0 22,4.92487 22,11 C22,17.07513 17.07513,22 11,22 Z M11,20 C15.97056,20 20,15.97056 20,11 C20,6.02944 15.97056,2 11,2 C6.02944,2 2,6.02944 2,11 C2,15.97056 6.02944,20 11,20 Z M14.27465,17 C13.5293,15.94023 12.3195,15.29783 11,15.29783 C9.6805,15.29783 8.4707,15.94023 7.72535,17 L6.08944,15.84943 C7.20545,14.26265 9.02245,13.29783 11,13.29783 C12.97755,13.29783 14.79455,14.26265 15.91056,15.84943 L14.27465,17 Z M13,11 L13,9 L15,9 L15,11 L13,11 Z M7,11 L7,9 L9,9 L9,11 L7,11 Z" id="icon"></path>
        </g>
    </g>
</svg>