<?xml version="1.0" encoding="UTF-8"?>
<svg width="15px" height="14px" viewBox="0 0 15 14" version="1.1" xmlns="http://www.w3.org/2000/svg" xmlns:xlink="http://www.w3.org/1999/xlink">
    <!-- Generator: Sketch 51.3 (57544) - http://www.bohemiancoding.com/sketch -->
    <title>icon</title>
    <desc>Created with Sketch.</desc>
    <defs></defs>
    <g id="Page-1" stroke="none" stroke-width="1" fill="none" fill-rule="evenodd">
        <g id="Dashboard_Qualidade" transform="translate(-867.000000, -246.000000)" fill="#33383B">
            <path d="M869.450673,246.777778 C869.71003,246.312821 870.194788,246 870.75,246 L878.25,246 C878.805212,246 879.28997,246.312821 879.549327,246.777778 L880.5,246.777778 C881.328427,246.777778 882,247.474224 882,248.333333 L882,250.666667 C882,253.173321 880.87156,255.001902 878.836005,255.292769 C878.024069,256.523456 876.737623,257.390862 875.25,257.611531 L875.25,258.444444 L876,258.444444 C876.828427,258.444444 877.5,259.14089 877.5,260 L871.5,260 C871.5,259.14089 872.171573,258.444444 873,258.444444 L873.75,258.444444 L873.75,257.611531 C872.262377,257.390862 870.975931,256.523456 870.163995,255.292769 C868.12844,255.001902 867,253.173321 867,250.666667 L867,248.333333 C867,247.474224 867.671573,246.777778 868.5,246.777778 L869.450673,246.777778 Z M869.25,248.333333 L868.5,248.333333 L868.5,250.666667 C868.5,251.857648 868.792708,252.746946 869.345871,253.263269 C869.282954,252.926303 869.25,252.578253 869.25,252.222222 L869.25,248.333333 Z M879.75,248.333333 L879.75,252.222222 C879.75,252.578253 879.717046,252.926303 879.654129,253.263269 C880.207292,252.746946 880.5,251.857648 880.5,250.666667 L880.5,248.333333 L879.75,248.333333 Z M870.75,247.555556 L870.75,252.222222 C870.75,254.369996 872.428932,256.111111 874.5,256.111111 C876.571068,256.111111 878.25,254.369996 878.25,252.222222 L878.25,247.555556 L870.75,247.555556 Z" id="icon"></path>
        </g>
    </g>
</svg>