<?xml version="1.0" encoding="UTF-8"?>
<svg width="24px" height="24px" viewBox="0 0 24 24" version="1.1" xmlns="http://www.w3.org/2000/svg" xmlns:xlink="http://www.w3.org/1999/xlink">
    <defs>
        <path d="M21,14 C20.4477153,14 20,14.4477153 20,15 L20,19 C20,19.5522847 19.5522847,20 19,20 L5,20 C4.44771525,20 4,19.5522847 4,19 L4,15 C4,14.4477153 3.55228475,14 3,14 C2.44771525,14 2,14.4477153 2,15 L2,19 C2,20.6568542 3.34314575,22 5,22 L19,22 C20.6568542,22 22,20.6568542 22,19 L22,15 C22,14.4477153 21.5522847,14 21,14 Z M11.29,15.71 C11.3851037,15.8010406 11.4972487,15.8724056 11.62,15.92 C11.8620399,16.0269768 12.1379601,16.0269768 12.38,15.92 C12.5027513,15.8724056 12.6148963,15.8010406 12.71,15.71 L16.71,11.71 C17.1021222,11.3178778 17.1021222,10.6821222 16.71,10.29 C16.3178778,9.89787784 15.6821222,9.89787784 15.29,10.29 L13,12.59 L13,3 C13,2.44771525 12.5522847,2 12,2 C11.4477153,2 11,2.44771525 11,3 L11,12.59 L8.71,10.29 C8.45634143,10.0363414 8.08662601,9.93727646 7.74012195,10.0301219 C7.3936179,10.1229674 7.12296742,10.3936179 7.03012194,10.740122 C6.93727646,11.086626 7.03634142,11.4563414 7.29,11.71 L11.29,15.71 Z" id="path-import"></path>
    </defs>
    <g id="Icons-/-Import" stroke="none" stroke-width="1" fill="none" fill-rule="evenodd">
        <mask id="mask-2-import" fill="white">
            <use xlink:href="#path-import"></use>
        </mask>
        <use id="Shape" fill="#000000" fill-rule="nonzero" xlink:href="#path-import"></use>
        <g id="Color-/-Black" mask="url(#mask-2-import)" fill="#333333">
            <rect id="Rectangle" x="0" y="0" width="24" height="24"></rect>
        </g>
    </g>
</svg>