<?xml version="1.0" encoding="UTF-8"?>
<svg width="24px" height="24px" viewBox="0 0 24 24" version="1.1" xmlns="http://www.w3.org/2000/svg" xmlns:xlink="http://www.w3.org/1999/xlink">
    <defs>
        <path d="M17.8328483,10.8332993 L8.97416719,10.8332993 L12.8257677,6.99812679 C13.2834337,6.54102764 13.2834337,5.7999235 12.8257677,5.34282436 C12.3681016,4.88572521 11.6260784,4.88572521 11.1684123,5.34282436 L5.332654,11.171354 C5.22639577,11.282217 5.14310202,11.4129451 5.08755215,11.556037 C4.97081595,11.8398413 4.97081595,12.1581692 5.08755215,12.4419735 C5.14310202,12.5850654 5.22639577,12.7157935 5.332654,12.8266565 L11.1684123,18.6551861 C11.3875644,18.875869 11.6858836,19 11.99709,19 C12.3082965,19 12.6066156,18.875869 12.8257677,18.6551861 C13.0467243,18.4363055 13.1710092,18.1383559 13.1710092,17.8275349 C13.1710092,17.516714 13.0467243,17.2187643 12.8257677,16.9998837 L8.97416719,13.1647112 L17.8328483,13.1647112 C18.4774484,13.1647112 19,12.6428069 19,11.9990052 C19,11.3552036 18.4774484,10.8332993 17.8328483,10.8332993 Z" id="path-left"></path>
    </defs>
    <g id="Icons-/-Arrow-/-Left" stroke="none" stroke-width="1" fill="none" fill-rule="evenodd">
        <mask id="mask-2-left" fill="white">
            <use xlink:href="#path-left"></use>
        </mask>
        <use id="Path" fill="#000000" fill-rule="nonzero" xlink:href="#path-left"></use>
        <g id="Color-/-Black" mask="url(#mask-2-left)" fill="#333333">
            <rect id="Rectangle" x="0" y="0" width="24" height="24"></rect>
        </g>
    </g>
</svg>