<?xml version="1.0" encoding="UTF-8"?>
<svg width="318px" height="240px" viewBox="0 0 318 240" version="1.1" xmlns="http://www.w3.org/2000/svg" xmlns:xlink="http://www.w3.org/1999/xlink">
    <!-- Generator: Sketch 55.2 (78181) - https://sketchapp.com -->
    <title>Group 2</title>
    <desc>Created with Sketch.</desc>
    <g id="Page-1" stroke="none" stroke-width="1" fill="none" fill-rule="evenodd">
        <g id="Relatório_Empty-state" transform="translate(-526.000000, -459.000000)">
            <g id="Group-2" transform="translate(477.000000, 374.000000)">
                <g id=":D" transform="translate(268.000000, 226.000000)"></g>
                <g id="Icon_search">
                    <path d="M356.134183,225.878108 C330.585248,258.333812 321.191068,238.450567 274.37032,237.674458 C229.655139,236.93325 209.223261,354.959717 139.722159,341.971138 C84.3288631,331.61907 10.6617846,204.023947 74.2965264,167.284412 C102.768836,150.845916 129.488043,170.829613 167.29974,113.588981 C201.403856,61.9610118 221.194549,40.7065172 290.049174,82.3983258 C362.789958,126.443223 372.679785,204.859652 356.134183,225.878108 Z" id="Path-5" fill="#DCE9F1" transform="translate(206.376803, 201.644767) rotate(30.000000) translate(-206.376803, -201.644767) "></path>
                    <rect id="Rectangle-11" stroke="#9DA19F" stroke-width="4" fill="#FFFFFF" x="110" y="155.112491" width="202.9073" height="126.970784"></rect>
                    <rect id="Rectangle-11" stroke="#9DA19F" stroke-width="4" fill="#FFFFFF" transform="translate(211.453650, 145.408328) scale(1, -1) translate(-211.453650, -145.408328) " x="110" y="132" width="202.9073" height="26.8166552"></rect>
                    <path d="M132.9176,178.224983 L132.9176,197.337474 L290.9176,197.337474 L290.9176,178.224983 L132.9176,178.224983 Z" id="Rectangle-11-Copy-2" stroke="#9DA19F" stroke-width="4" fill="#ECF1F7"></path>
                    <path d="M132.9176,209.041638 L132.9176,228.154129 L290.9176,228.154129 L290.9176,209.041638 L132.9176,209.041638 Z" id="Rectangle-11-Copy-3" stroke="#9DA19F" stroke-width="4" fill="#ECF1F7"></path>
                    <path d="M132.9176,239.858293 L132.9176,258.970784 L290.9176,258.970784 L290.9176,239.858293 L132.9176,239.858293 Z" id="Rectangle-11-Copy-4" stroke="#9DA19F" stroke-width="4" fill="#ECF1F7"></path>
                    <circle id="Oval" fill="#FFFFFF" cx="307.5" cy="265.5" r="36.5"></circle>
                    <circle id="Oval" fill="#DCE9F1" cx="308" cy="265" r="29"></circle>
                    <path d="M337.57069,290.133878 C337.91591,290.317162 338.239972,290.554108 338.530468,290.844604 L341.222828,293.536965 L342.743807,295.057944 C344.104883,295.097213 345.454103,295.636041 346.492187,296.674124 L364.260846,314.442783 C366.419378,316.601316 366.417855,320.103502 364.260679,322.260679 C362.102063,324.419294 358.60038,324.418443 356.442783,322.260846 L338.674124,304.492187 C337.635862,303.453925 337.09736,302.104789 337.058129,300.743993 L335.536965,299.222828 L332.844604,296.530468 L332.844604,296.530468 C332.554071,296.239935 332.317,295.915988 332.133548,295.570962 C316.734934,308.237474 293.937945,307.375117 279.546719,292.98389 C264.238166,277.675338 264.238166,252.855271 279.546719,237.546719 C294.855271,222.238166 319.675338,222.238166 334.98389,237.546719 C349.37522,251.938048 350.237486,274.735259 337.57069,290.133878 L337.57069,290.133878 L337.57069,290.133878 Z M340.806323,302.359988 L358.574982,320.128647 C359.554715,321.108379 361.147162,321.109797 362.12848,320.12848 C363.1078,319.149159 363.109872,317.556207 362.128647,316.574982 L344.359988,298.806323 C343.380256,297.826591 341.787808,297.825173 340.806491,298.806491 C339.82717,299.785811 339.825098,301.378763 340.806323,302.359988 L340.806323,302.359988 L340.806323,302.359988 Z M332.851691,290.851691 C346.982663,276.72072 346.982663,253.809889 332.851691,239.678917 C318.72072,225.547946 295.809889,225.547946 281.678917,239.678917 C267.547946,253.809889 267.547946,276.72072 281.678917,290.851691 C295.809889,304.982663 318.72072,304.982663 332.851691,290.851691 L332.851691,290.851691 L332.851691,290.851691 Z M328.94266,286.94266 C316.970587,298.914733 297.560022,298.914733 285.587949,286.94266 C273.615876,274.970587 273.615876,255.560022 285.587949,243.587949 C297.560022,231.615876 316.970587,231.615876 328.94266,243.587949 C340.914733,255.560022 340.914733,274.970587 328.94266,286.94266 L328.94266,286.94266 L328.94266,286.94266 Z M326.810461,284.810461 C337.604953,274.015969 337.604953,256.51464 326.810461,245.720148 C316.015969,234.925656 298.51464,234.925656 287.720148,245.720148 C276.925656,256.51464 276.925656,274.015969 287.720148,284.810461 C298.51464,295.604953 316.015969,295.604953 326.810461,284.810461 L326.810461,284.810461 L326.810461,284.810461 Z M334.976803,294.398269 L337.669163,297.090629 L339.090629,295.669163 L336.398269,292.976803 C336.004634,292.583168 335.365956,292.580902 334.973429,292.973429 C334.578166,293.368693 334.582413,294.003879 334.976803,294.398269 L334.976803,294.398269 L334.976803,294.398269 Z M307.2,284.297436 C317.747223,284.297436 326.297436,275.747223 326.297436,265.2 C326.297436,264.367325 326.972453,263.692308 327.805128,263.692308 C328.637804,263.692308 329.312821,264.367325 329.312821,265.2 C329.312821,277.412574 319.412574,287.312821 307.2,287.312821 C306.367325,287.312821 305.692308,286.637804 305.692308,285.805128 C305.692308,284.972453 306.367325,284.297436 307.2,284.297436 Z M342.583323,307.690653 C341.994532,307.101862 341.994592,306.147185 342.581263,305.560514 L347.560514,300.581263 C348.148167,299.99361 349.10306,299.995731 349.690653,300.583323 C350.279443,301.172113 350.279384,302.12679 349.692713,302.713461 L344.713461,307.692713 C344.125809,308.280366 343.170915,308.278245 342.583323,307.690653 Z" id="Shape" stroke="#9DA19F" stroke-width="0.4" fill="#9DA19F" fill-rule="nonzero"></path>
                </g>
                <g id="Request-Training-Icon" transform="translate(108.000000, 130.000000)">
                    <g id="Web-Page"></g>
                    <g id="Content" transform="translate(21.989700, 46.224983)"></g>
                </g>
            </g>
        </g>
    </g>
</svg>