<?xml version="1.0" encoding="UTF-8"?>
<svg width="208px" height="210px" viewBox="0 0 208 210" version="1.1" xmlns="http://www.w3.org/2000/svg" xmlns:xlink="http://www.w3.org/1999/xlink">
    <!-- Generator: Sketch 55.2 (78181) - https://sketchapp.com -->
    <title>Group 11</title>
    <desc>Created with Sketch.</desc>
    <g id="Page-1" stroke="none" stroke-width="1" fill="none" fill-rule="evenodd">
        <g id="Group-11" transform="translate(-49.000000, -44.000000)">
            <g id="Group-2">
                <g id="no-results">
                    <path d="M221.490501,201.494086 C193.581894,222.56014 209.804681,268.193833 154.412918,264.522252 C120.034774,262.243536 114.026016,228.58354 101.346998,218.155399 C85.3527046,205.000535 55.8797179,216.52512 46.1882762,183.733732 C38.5050137,157.7371 57.5448341,150.800173 69.992705,139.335384 C87.4897846,123.220151 77.4268686,96.9030317 90.8540166,68.4943824 C104.281165,40.085733 179.035252,31.9492916 198.7202,81.4781173 C210.772161,111.801768 251.620404,91.419083 263.672365,134.327124 C275.724326,177.235165 245.594424,183.299895 221.490501,201.494086 Z" id="Path-5" fill="#DCE9F1" transform="translate(155.416176, 155.231291) rotate(40.000000) translate(-155.416176, -155.231291) "></path>
                    <path d="M90.1045415,73.9047631 L90.0536205,209.397343 L195.436383,209.357819 L195.487304,73.8652397 L90.1045415,73.9047631 Z" id="Rectangle-10" stroke="#9DA19F" stroke-width="4.05" fill="#FFFFFF" transform="translate(142.770462, 141.631291) rotate(8.000000) translate(-142.770462, -141.631291) "></path>
                    <path d="M80.5211764,83.4229579 L80.5211764,212.839625 L179.831176,212.839625 L179.831176,111.761325 L151.486106,83.4229579 L80.5211764,83.4229579 Z" id="Rectangle-8" stroke="#9DA19F" stroke-width="4.05" fill="#FFFFFF"></path>
                    <rect id="Rectangle" fill="#FAFAFA" transform="translate(226.500000, 237.000000) rotate(-45.000000) translate(-226.500000, -237.000000) " x="223" y="225" width="7" height="24" rx="2"></rect>
                    <rect id="Rectangle" fill="#FAFAFA" transform="translate(214.782486, 224.989592) rotate(-45.000000) translate(-214.782486, -224.989592) " x="211.782486" y="220.989592" width="6" height="8" rx="2"></rect>
                    <rect id="Rectangle" fill="#FAFAFA" transform="translate(211.954058, 222.161165) rotate(-45.000000) translate(-211.954058, -222.161165) " x="208.954058" y="214.161165" width="6" height="16" rx="2"></rect>
                    <circle id="Oval" fill="#FFFFFF" cx="178.5" cy="189.5" r="36.5"></circle>
                    <circle id="Oval" fill="#DCE9F1" cx="179" cy="189" r="29"></circle>
                    <rect id="Path" fill="#9DA19F" fill-rule="nonzero" transform="translate(104.071068, 138.071068) rotate(-45.000000) translate(-104.071068, -138.071068) " x="96.0710678" y="136.071068" width="16" height="4" rx="2"></rect>
                    <rect id="Rectangle-320" fill="#9DA19F" fill-rule="nonzero" transform="translate(104.071068, 138.071068) rotate(-315.000000) translate(-104.071068, -138.071068) " x="96.0710678" y="136.071068" width="16" height="4" rx="2"></rect>
                    <rect id="Path" fill="#9DA19F" fill-rule="nonzero" transform="translate(157.071068, 138.071068) rotate(-45.000000) translate(-157.071068, -138.071068) " x="149.071068" y="136.071068" width="16" height="4" rx="2"></rect>
                    <rect id="Rectangle-320" fill="#9DA19F" fill-rule="nonzero" transform="translate(157.071068, 138.071068) rotate(-315.000000) translate(-157.071068, -138.071068) " x="149.071068" y="136.071068" width="16" height="4" rx="2"></rect>
                    <rect id="Rectangle-324" fill="#9DA19F" fill-rule="nonzero" x="113.071068" y="163.071068" width="35" height="4" rx="2"></rect>
                    <path d="M208.57069,214.133878 C208.91591,214.317162 209.239972,214.554108 209.530468,214.844604 L212.222828,217.536965 L213.743807,219.057944 C215.104883,219.097213 216.454103,219.636041 217.492187,220.674124 L235.260846,238.442783 C237.419378,240.601316 237.417855,244.103502 235.260679,246.260679 C233.102063,248.419294 229.60038,248.418443 227.442783,246.260846 L209.674124,228.492187 C208.635862,227.453925 208.09736,226.104789 208.058129,224.743993 L206.536965,223.222828 L203.844604,220.530468 L203.844604,220.530468 C203.554071,220.239935 203.317,219.915988 203.133548,219.570962 C187.734934,232.237474 164.937945,231.375117 150.546719,216.98389 C135.238166,201.675338 135.238166,176.855271 150.546719,161.546719 C165.855271,146.238166 190.675338,146.238166 205.98389,161.546719 C220.37522,175.938048 221.237486,198.735259 208.57069,214.133878 L208.57069,214.133878 L208.57069,214.133878 Z M211.806323,226.359988 L229.574982,244.128647 C230.554715,245.108379 232.147162,245.109797 233.12848,244.12848 C234.1078,243.149159 234.109872,241.556207 233.128647,240.574982 L215.359988,222.806323 C214.380256,221.826591 212.787808,221.825173 211.806491,222.806491 C210.82717,223.785811 210.825098,225.378763 211.806323,226.359988 L211.806323,226.359988 L211.806323,226.359988 Z M203.851691,214.851691 C217.982663,200.72072 217.982663,177.809889 203.851691,163.678917 C189.72072,149.547946 166.809889,149.547946 152.678917,163.678917 C138.547946,177.809889 138.547946,200.72072 152.678917,214.851691 C166.809889,228.982663 189.72072,228.982663 203.851691,214.851691 L203.851691,214.851691 L203.851691,214.851691 Z M199.94266,210.94266 C187.970587,222.914733 168.560022,222.914733 156.587949,210.94266 C144.615876,198.970587 144.615876,179.560022 156.587949,167.587949 C168.560022,155.615876 187.970587,155.615876 199.94266,167.587949 C211.914733,179.560022 211.914733,198.970587 199.94266,210.94266 L199.94266,210.94266 L199.94266,210.94266 Z M197.810461,208.810461 C208.604953,198.015969 208.604953,180.51464 197.810461,169.720148 C187.015969,158.925656 169.51464,158.925656 158.720148,169.720148 C147.925656,180.51464 147.925656,198.015969 158.720148,208.810461 C169.51464,219.604953 187.015969,219.604953 197.810461,208.810461 L197.810461,208.810461 L197.810461,208.810461 Z M205.976803,218.398269 L208.669163,221.090629 L210.090629,219.669163 L207.398269,216.976803 C207.004634,216.583168 206.365956,216.580902 205.973429,216.973429 C205.578166,217.368693 205.582413,218.003879 205.976803,218.398269 L205.976803,218.398269 L205.976803,218.398269 Z M178.2,208.297436 C188.747223,208.297436 197.297436,199.747223 197.297436,189.2 C197.297436,188.367325 197.972453,187.692308 198.805128,187.692308 C199.637804,187.692308 200.312821,188.367325 200.312821,189.2 C200.312821,201.412574 190.412574,211.312821 178.2,211.312821 C177.367325,211.312821 176.692308,210.637804 176.692308,209.805128 C176.692308,208.972453 177.367325,208.297436 178.2,208.297436 Z M213.583323,231.690653 C212.994532,231.101862 212.994592,230.147185 213.581263,229.560514 L218.560514,224.581263 C219.148167,223.99361 220.10306,223.995731 220.690653,224.583323 C221.279443,225.172113 221.279384,226.12679 220.692713,226.713461 L215.713461,231.692713 C215.125809,232.280366 214.170915,232.278245 213.583323,231.690653 Z" id="Shape" stroke="#9DA19F" stroke-width="0.4" fill="#9DA19F" fill-rule="nonzero"></path>
                </g>
                <g id="Resources-Icon" transform="translate(84.416176, 64.731291)">
                    <g id="Doc-Behind"></g>
                    <g id="Plus-Sign" transform="translate(66.407273, 92.618182)"></g>
                </g>
            </g>
            <polygon id="Rectangle-9" stroke="#9DA19F" stroke-width="2.9" fill="#9DA19F" fill-rule="nonzero" points="150.822862 112.125364 150.822862 83 150 83 150 113 179 113 179 112.125364"></polygon>
        </g>
    </g>
</svg>