<?xml version="1.0" encoding="UTF-8"?>
<svg width="24px" height="24px" viewBox="0 0 24 24" version="1.1" xmlns="http://www.w3.org/2000/svg" xmlns:xlink="http://www.w3.org/1999/xlink">
    <defs>
        <path d="M19.08,12.42 L12.9,18.61 C11.2180967,20.1047191 8.66263918,20.0294934 7.07157288,18.4384271 C5.48050657,16.8473608 5.40528093,14.2919033 6.9,12.61 L14.9,4.61 C15.8919089,3.6677738 17.4480911,3.6677738 18.44,4.61 C19.4083479,5.59133526 19.4083479,7.16866474 18.44,8.15 L11.54,15.04 C11.3542219,15.2400687 11.0758204,15.3258284 10.8096668,15.2649742 C10.5435131,15.20412 10.3300423,15.0058972 10.2496668,14.7449742 C10.1692912,14.4840513 10.2342219,14.2000687 10.42,14 L15.55,8.88 C15.9421222,8.48787783 15.9421222,7.85212218 15.55,7.46000001 C15.1578778,7.06787784 14.5221222,7.06787784 14.13,7.46 L9,12.6 C8.48152975,13.1144493 8.1899158,13.81461 8.1899158,14.545 C8.1899158,15.27539 8.48152975,15.9755507 9,16.49 C10.0891492,17.5274603 11.8008508,17.5274603 12.89,16.49 L19.78,9.59 C21.4321532,7.81694147 21.3834033,5.05394167 19.6697308,3.34026921 C17.9560583,1.62659674 15.1930585,1.57784684 13.42,3.23 L5.42,11.23 C3.17876249,13.7123033 3.28878065,17.5190455 5.66963896,19.8677662 C8.05049727,22.2164869 11.858383,22.2747636 14.31,20 L20.5,13.82 C20.7536586,13.5663414 20.8527235,13.196626 20.759878,12.850122 C20.6670326,12.5036179 20.3963821,12.2329674 20.049878,12.140122 C19.703374,12.0472765 19.3336586,12.1463414 19.08,12.4 L19.08,12.42 Z" id="path-1-paperclip"></path>
    </defs>
    <g id="Icons-/-Text-edit-/-Paperclip" stroke="none" stroke-width="1" fill="none" fill-rule="evenodd">
        <mask id="mask-2-paperclip" fill="white">
            <use xlink:href="#path-1-paperclip"></use>
        </mask>
        <use id="Path" fill="#000000" fill-rule="nonzero" xlink:href="#path-1-paperclip"></use>
        <g id="Color-/-Black" mask="url(#mask-2-paperclip)" fill="#333333">
            <rect id="Rectangle" x="0" y="0" width="24" height="24"></rect>
        </g>
    </g>
</svg>