<?xml version="1.0" encoding="UTF-8"?>
<svg width="37px" height="37px" viewBox="0 0 37 37" version="1.1" xmlns="http://www.w3.org/2000/svg" xmlns:xlink="http://www.w3.org/1999/xlink">
    <!-- Generator: Sketch 51.3 (57544) - http://www.bohemiancoding.com/sketch -->
    <title>Group</title>
    <desc>Created with Sketch.</desc>
    <defs>
        <path d="M13.9393939,6.57692308 L9.6969697,6.57692308 C9.22836445,6.57692308 8.84848485,6.21530691 8.84848485,5.76923077 L8.84848485,1.73076923 L2.90909091,1.73076923 C2.44048567,1.73076923 2.06060606,2.09238539 2.06060606,2.53846154 L2.06060606,15.4615385 C2.06060606,15.9076146 2.44048567,16.2692308 2.90909091,16.2692308 L13.0909091,16.2692308 C13.5595143,16.2692308 13.9393939,15.9076146 13.9393939,15.4615385 L13.9393939,6.57692308 L14.7878788,6.57692308 C15.256484,6.57692308 15.6363636,6.21530691 15.6363636,5.76923077 C15.6363636,5.65771173 15.6126212,5.55147145 15.5696855,5.45484047 C15.6140152,5.55721086 15.6363636,5.66212411 15.6363636,5.76923077 L15.6363636,15.4615385 C15.6363636,16.7997669 14.4967248,17.8846154 13.0909091,17.8846154 L2.90909091,17.8846154 C1.50327518,17.8846154 0.363636364,16.7997669 0.363636364,15.4615385 L0.363636364,2.53846154 C0.363636364,1.20023311 1.50327518,0.115384615 2.90909091,0.115384615 L9.6969697,0.115384615 C9.92200187,0.115384615 10.1378173,0.200480525 10.2969391,0.351952215 L15.3878482,5.19810606 C15.4674091,5.27384191 15.5295379,5.36306975 15.5717766,5.4601403 Z M10.5454545,2.87301865 L10.5454545,4.96153846 L12.7394552,4.96153846 L10.5454545,2.87301865 Z M11.3939394,9 C11.8625446,9 12.2424242,9.36161616 12.2424242,9.80769231 C12.2424242,10.2537685 11.8625446,10.6153846 11.3939394,10.6153846 L4.60606061,10.6153846 C4.13745536,10.6153846 3.75757576,10.2537685 3.75757576,9.80769231 C3.75757576,9.36161616 4.13745536,9 4.60606061,9 L11.3939394,9 Z M11.3939394,12.2307692 C11.8625446,12.2307692 12.2424242,12.5923854 12.2424242,13.0384615 C12.2424242,13.4845377 11.8625446,13.8461538 11.3939394,13.8461538 L4.60606061,13.8461538 C4.13745536,13.8461538 3.75757576,13.4845377 3.75757576,13.0384615 C3.75757576,12.5923854 4.13745536,12.2307692 4.60606061,12.2307692 L11.3939394,12.2307692 Z M6.3030303,5.76923077 C6.77163555,5.76923077 7.15151515,6.13084693 7.15151515,6.57692308 C7.15151515,7.02299922 6.77163555,7.38461538 6.3030303,7.38461538 L4.60606061,7.38461538 C4.13745536,7.38461538 3.75757576,7.02299922 3.75757576,6.57692308 C3.75757576,6.13084693 4.13745536,5.76923077 4.60606061,5.76923077 L6.3030303,5.76923077 Z" id="path-1"></path>
    </defs>
    <g id="Page-1" stroke="none" stroke-width="1" fill="none" fill-rule="evenodd">
        <g id="Dashboard_01" transform="translate(-367.000000, -261.000000)">
            <g id="Group" transform="translate(368.000000, 262.000000)">
                <g id="Icons-/-Feather-/-file-text" transform="translate(9.500000, 9.000000)">
                    <mask id="mask-2" fill="white">
                        <use xlink:href="#path-1"></use>
                    </mask>
                    <use id="Combined-Shape" fill="#FBFCFE" fill-rule="nonzero" xlink:href="#path-1"></use>
                </g>
                <circle id="Oval-2" stroke="#FBFCFE" stroke-width="1.79999985" cx="17.5" cy="17.5" r="17.5"></circle>
            </g>
        </g>
    </g>
</svg>