<?xml version="1.0" encoding="UTF-8"?>
<svg width="24px" height="24px" viewBox="0 0 24 24" version="1.1" xmlns="http://www.w3.org/2000/svg" xmlns:xlink="http://www.w3.org/1999/xlink">
    <defs>
        <path d="M21.32,9.55 L19.43,8.92 L20.32,7.14 C20.5048974,6.75816814 20.4287403,6.30122558 20.13,5.99999664 L17.9999966,3.87 C17.69702,3.56671443 17.234432,3.49028684 16.85,3.68 L15.07,4.57 L14.44,2.68 C14.3036128,2.27616235 13.926235,2.00316567 13.4999966,1.99999664 L10.4999966,1.99999664 C10.0700841,1.99889024 9.68757212,2.27268828 9.55,2.68 L8.92,4.57 L7.14,3.68 C6.75816814,3.49510262 6.30122558,3.57125971 5.99999664,3.87 L3.87,5.99999664 C3.56671443,6.30298 3.49028684,6.76556804 3.68,7.15 L4.57,8.93 L2.68,9.56 C2.27616235,9.69638721 2.00316567,10.073765 1.99999664,10.4999966 L1.99999664,13.4999966 C1.99889024,13.9299159 2.27268828,14.3124279 2.68,14.45 L4.57,15.08 L3.68,16.86 C3.49510262,17.2418319 3.57125971,17.6987744 3.87,17.9999966 L5.99999664,20.13 C6.30298,20.4332856 6.76556804,20.5097132 7.15,20.32 L8.93,19.43 L9.56,21.32 C9.69757212,21.7273117 10.0800841,22.0011098 10.51,21.9999966 L13.51,21.9999966 C13.9399159,22.0011098 14.3224279,21.7273117 14.46,21.32 L15.09,19.43 L16.87,20.32 C17.2492067,20.5001445 17.7005593,20.4242534 17.9999966,20.13 L20.13,17.9999966 C20.4332856,17.69702 20.5097132,17.234432 20.32,16.85 L19.43,15.07 L21.32,14.44 C21.7238376,14.3036128 21.9968343,13.926235 21.9999966,13.4999966 L21.9999966,10.4999966 C22.0011098,10.0700841 21.7273117,9.68757212 21.32,9.55 Z M20,12.78 L18.8,13.18 C18.2415033,13.36116 17.7908226,13.7785815 17.5674616,14.3215799 C17.3441005,14.8645784 17.3706244,15.4782968 17.64,16 L18.21,17.14 L17.11,18.24 L16,17.64 C15.4811213,17.3814899 14.8756042,17.3608379 14.340318,17.5833941 C13.8050318,17.8059504 13.3926475,18.2498159 13.21,18.8 L12.81,20 L11.22,20 L10.82,18.8 C10.63884,18.2415033 10.2214185,17.7908226 9.67842007,17.5674616 C9.13542164,17.3441005 8.52170319,17.3706244 8,17.64 L6.86,18.21 L5.76,17.11 L6.36,16 C6.62937564,15.4782968 6.6558995,14.8645784 6.43253844,14.3215799 C6.20917738,13.7785815 5.75849666,13.36116 5.2,13.18 L4,12.78 L4,11.22 L5.2,10.82 C5.75849666,10.63884 6.20917738,10.2214185 6.43253844,9.67842007 C6.6558995,9.13542164 6.62937564,8.52170319 6.36,8 L5.79,6.89 L6.89,5.79 L8,6.36 C8.52170319,6.62937564 9.13542164,6.6558995 9.67842007,6.43253844 C10.2214185,6.20917738 10.63884,5.75849666 10.82,5.2 L11.22,4 L12.78,4 L13.18,5.2 C13.36116,5.75849666 13.7785815,6.20917738 14.3215799,6.43253844 C14.8645784,6.6558995 15.4782968,6.62937564 16,6.36 L17.14,5.79 L18.24,6.89 L17.64,8 C17.3814899,8.51887874 17.3608379,9.1243958 17.5833941,9.659682 C17.8059504,10.1949682 18.2498159,10.6073525 18.8,10.79 L20,11.19 L20,12.78 Z M12,8 C9.790861,8 8,9.790861 8,12 C8,14.209139 9.790861,16 12,16 C14.209139,16 16,14.209139 16,12 C16,10.939134 15.5785726,9.92171839 14.8284271,9.17157288 C14.0782816,8.42142736 13.060866,8 12,8 Z M12,14 C10.8954305,14 10,13.1045695 10,12 C10,10.8954305 10.8954305,10 12,10 C13.1045695,10 14,10.8954305 14,12 C14,13.1045695 13.1045695,14 12,14 Z" id="path-settings"></path>
    </defs>
    <g id="Icons-/-Settings" stroke="none" stroke-width="1" fill="none" fill-rule="evenodd">
        <mask id="mask-2-settings" fill="white">
            <use xlink:href="#path-settings"></use>
        </mask>
        <use id="Shape" fill="#000000" fill-rule="nonzero" xlink:href="#path-settings"></use>
        <g id="Color-/-Black" mask="url(#mask-2-settings)" fill="#333333">
            <rect id="Rectangle" x="0" y="0" width="24" height="24"></rect>
        </g>
    </g>
</svg>