<?xml version="1.0" encoding="UTF-8"?>
<svg width="24px" height="24px" viewBox="0 0 24 24" version="1.1" xmlns="http://www.w3.org/2000/svg" xmlns:xlink="http://www.w3.org/1999/xlink">
    <defs>
        <path d="M18,14 C16.803667,14.0079114 15.6736801,14.5508921 14.92,15.48 L9.82,13.13 C10.0597881,12.395748 10.0597881,11.604252 9.82,10.87 L14.92,8.52 C16.1620547,10.0187722 18.3026972,10.4058323 19.9909491,9.43690318 C21.6792009,8.46797409 22.424845,6.42440345 21.7572986,4.59590686 C21.0897522,2.76741027 19.2028507,1.6849277 17.2874343,2.03162353 C15.3720179,2.37831935 13.9842655,4.05352361 14,6 C14.0030077,6.23823181 14.0264268,6.47576761 14.07,6.71 L8.79,9.14 C7.21881799,7.60370382 4.70252268,7.62253603 3.15451097,9.18217657 C1.60649926,10.7418171 1.60649926,13.2581829 3.15451097,14.8178234 C4.70252268,16.377464 7.21881799,16.3962962 8.79,14.86 L14.07,17.29 C14.0264268,17.5242324 14.0030077,17.7617682 14,18 C14,20.209139 15.790861,22 18,22 C20.209139,22 22,20.209139 22,18 C22,15.790861 20.209139,14 18,14 Z M18,4 C19.1045695,4 20,4.8954305 20,6 C20,7.1045695 19.1045695,8 18,8 C16.8954305,8 16,7.1045695 16,6 C16,4.8954305 16.8954305,4 18,4 Z M6,14 C4.8954305,14 4,13.1045695 4,12 C4,10.8954305 4.8954305,10 6,10 C7.1045695,10 8,10.8954305 8,12 C8,13.1045695 7.1045695,14 6,14 Z M18,20 C16.8954305,20 16,19.1045695 16,18 C16,16.8954305 16.8954305,16 18,16 C19.1045695,16 20,16.8954305 20,18 C20,19.1045695 19.1045695,20 18,20 Z" id="path-share"></path>
    </defs>
    <g id="Icons-/-Share" stroke="none" stroke-width="1" fill="none" fill-rule="evenodd">
        <mask id="mask-2" fill="white">
            <use xlink:href="#path-1"></use>
        </mask>
        <use id="Shape" fill="#000000" fill-rule="nonzero" xlink:href="#path-share"></use>
        <g mask="url(#mask-2)" fill="#333333">
            <rect id="Rectangle" x="0" y="0" width="24" height="24"></rect>
        </g>
    </g>
</svg>
