<?xml version="1.0" encoding="UTF-8"?>
<svg width="281px" height="282px" viewBox="0 0 281 282" version="1.1" xmlns="http://www.w3.org/2000/svg" xmlns:xlink="http://www.w3.org/1999/xlink">
    <title>Artboard</title>
    <defs>
        <linearGradient x1="19.8232627%" y1="65.8067294%" x2="124.189238%" y2="65.8067294%" id="linearGradient-1">
            <stop stop-color="#FF9A6B" offset="0%"></stop>
            <stop stop-color="#FF7E80" offset="100%"></stop>
        </linearGradient>
        <linearGradient x1="19.8232627%" y1="65.8067294%" x2="124.189238%" y2="65.8067294%" id="linearGradient-2">
            <stop stop-color="#FF9A6B" offset="0%"></stop>
            <stop stop-color="#FF7E80" offset="100%"></stop>
        </linearGradient>
        <linearGradient x1="50%" y1="0%" x2="50%" y2="100%" id="linearGradient-3">
            <stop stop-color="#320056" offset="0%"></stop>
            <stop stop-color="#320056" offset="100%"></stop>
        </linearGradient>
        <linearGradient x1="19.8232627%" y1="65.8067294%" x2="124.189238%" y2="65.8067294%" id="linearGradient-4">
            <stop stop-color="#D3D2F4" offset="0%"></stop>
            <stop stop-color="#FF7E80" offset="100%"></stop>
        </linearGradient>
    </defs>
    <g id="Artboard" stroke="none" stroke-width="1" fill="none" fill-rule="evenodd">
        <path d="M199.341446,181.344672 C174.2237,200.30412 188.824208,241.374443 138.971623,238.070021 C108.031294,236.019176 102.623412,205.725181 91.2122956,196.339854 C76.8174321,184.500477 50.2917448,194.872603 41.5694475,165.360354 C34.6545114,141.963386 51.7903493,135.720152 62.9934328,125.401842 C78.740804,110.898133 69.6841799,87.2127262 81.7686128,61.6449425 C93.8530457,36.0771587 161.131723,28.7543617 178.848175,73.3303037 C189.69494,100.621589 226.458358,82.2771725 237.305123,120.894408 C248.151887,159.511644 221.034975,164.969901 199.341446,181.344672 Z" id="Path-5" fill="#EBEAF9" transform="translate(139.874555, 139.708158) rotate(40.000000) translate(-139.874555, -139.708158) "></path>
        <polygon id="Rectangle" fill="url(#linearGradient-1)" transform="translate(95.000000, 156.000000) rotate(-270.000000) translate(-95.000000, -156.000000) " points="43 145 147 145 147 167 43 167"></polygon>
        <polygon id="Rectangle" fill="url(#linearGradient-2)" transform="translate(153.000000, 123.000000) rotate(-270.000000) translate(-153.000000, -123.000000) " points="68 112 238 112 238 134 68 134"></polygon>
        <polygon id="Rectangle" fill="#FFFFFF" opacity="0.9" transform="translate(117.000000, 169.000000) rotate(-270.000000) translate(-117.000000, -169.000000) " points="78 158 156 158 156 180 78 180"></polygon>
        <polygon id="Rectangle" fill="#FFFFFF" opacity="0.9" transform="translate(175.500000, 146.000000) rotate(-270.000000) translate(-175.500000, -146.000000) " points="113 135 238 135 238 157 113 157"></polygon>
        <g id="Group-4" transform="translate(75.000000, 58.000000)">
            <g id="Resources-Icon" transform="translate(0.499998, 0.499998)">
                <g id="Doc-Behind"></g>
                <g id="Plus-Sign" transform="translate(59.766544, 83.356361)"></g>
            </g>
            <polygon id="Rectangle-9" fill-rule="nonzero" points="60.2660132 43.1546632 60.2660132 16.9418359 59.5254376 16.9418359 59.5254376 43.9418352 85.6254369 43.9418352 85.6254369 43.1546632"></polygon>
            <polygon id="Clip-18" points="117.70068 136.378986 150.589794 136.378986 150.589794 169.624061 117.70068 169.624061"></polygon>
            <path d="M123.547294,134.020781 C123.4655,133.937675 122.455853,133.906633 122.035344,134.020781 C118.643513,134.941503 115.575783,139.2792 116.918965,135.944266 C118.262148,132.609331 112.036204,137.544794 115.196351,142.192757 C115.375189,142.455793 117.658281,144.800608 117.730014,144.872779 C118.35658,145.506163 118.826504,145.981201 119.139787,146.297893 C123.88207,151.091782 130.995494,158.282615 140.48006,167.870393 C142.792593,170.208733 146.542423,170.208733 148.855394,167.870393 C151.167928,165.532491 151.167928,161.741983 148.855394,159.403643 L123.547294,134.020781 Z" id="Fill-17" fill="url(#linearGradient-3)"></path>
            <path d="M96.7684971,87.7010206 C81.4791822,87.7010206 69.0845801,100.095185 69.0845801,115.384938 C69.0845801,130.674252 81.4791822,143.068417 96.7684971,143.068417 C112.057812,143.068417 124.452414,130.674252 124.452414,115.384938 C124.452414,100.095185 112.057812,87.7010206 96.7684971,87.7010206" id="Fill-1" fill="url(#linearGradient-4)"></path>
            <path d="M75.0744661,117.374145 C74.1082497,117.374145 73.3248664,116.590762 73.3248664,115.624545 C73.3248664,101.658803 84.6867672,90.2973392 98.6520725,90.2973392 C99.6182889,90.2973392 100.401672,91.0807224 100.401672,92.0469389 C100.401672,93.0131554 99.6182889,93.7965387 98.6520725,93.7965387 C86.6161383,93.7965387 76.8240659,103.588611 76.8240659,115.624545 C76.8240659,116.590762 76.0406826,117.374145 75.0744661,117.374145" id="Fill-3" fill="#FFFFFF"></path>
            <path d="M96.7684971,143.068592 C81.4791822,143.068592 69.0845801,130.67399 69.0845801,115.384675 C69.0845801,100.09536 81.4791822,87.7011956 96.7684971,87.7011956 C112.057812,87.7011956 124.452414,100.09536 124.452414,115.384675 C124.452414,130.67399 112.057812,143.068592 96.7684971,143.068592 L96.7684971,143.068592 Z M122.214239,135.220325 C122.254917,135.179209 122.300406,135.146842 122.345459,135.113162 C126.561119,129.655286 129.073982,122.814788 129.073982,115.384675 C129.073982,97.5426942 114.610478,83.0791904 96.7684971,83.0791904 C78.9265162,83.0791904 64.4630124,97.5426942 64.4630124,115.384675 C64.4630124,133.226656 78.9265162,147.69016 96.7684971,147.69016 C104.167554,147.69016 110.978309,145.193481 116.424813,141.008876 L120.161958,137.271731 L122.214239,135.220325 Z" id="Fill-7" fill="#320056"></path>
        </g>
    </g>
</svg>