<?xml version="1.0" encoding="UTF-8"?>
<svg width="24px" height="24px" viewBox="0 0 24 24" version="1.1" xmlns="http://www.w3.org/2000/svg" xmlns:xlink="http://www.w3.org/1999/xlink">
    <g>
        <path fill="#000000"  d="M10,18 C10.5522847,18 11,17.5522847 11,17 L11,11 C11,10.4477153 10.5522847,10 10,10 C9.44771525,10 9,10.4477153 9,11 L9,17 C9,17.5522847 9.44771525,18 10,18 Z M20,6 L16,6 L16,5 C16,3.34314575 14.6568542,2 13,2 L11,2 C9.34314575,2 8,3.34314575 8,5 L8,6 L4,6 C3.44771525,6 3,6.44771525 3,7 C3,7.55228475 3.44771525,8 4,8 L5,8 L5,19 C5,20.6568542 6.34314575,22 8,22 L16,22 C17.6568542,22 19,20.6568542 19,19 L19,8 L20,8 C20.5522847,8 21,7.55228475 21,7 C21,6.44771525 20.5522847,6 20,6 Z M10,5 C10,4.44771525 10.4477153,4 11,4 L13,4 C13.5522847,4 14,4.44771525 14,5 L14,6 L10,6 L10,5 Z M17,19 C17,19.5522847 16.5522847,20 16,20 L8,20 C7.44771525,20 7,19.5522847 7,19 L7,8 L17,8 L17,19 Z M14,18 C14.5522847,18 15,17.5522847 15,17 L15,11 C15,10.4477153 14.5522847,10 14,10 C13.4477153,10 13,10.4477153 13,11 L13,17 C13,17.5522847 13.4477153,18 14,18 Z"></path>
    </g>
</svg>