<?xml version="1.0" encoding="UTF-8" standalone="no"?>
<svg
   xmlns:dc="http://purl.org/dc/elements/1.1/"
   xmlns:cc="http://creativecommons.org/ns#"
   xmlns:rdf="http://www.w3.org/1999/02/22-rdf-syntax-ns#"
   xmlns:svg="http://www.w3.org/2000/svg"
   xmlns="http://www.w3.org/2000/svg"
   viewBox="0 0 2792.1733 1156.548"
   height="1156.548"
   width="2792.1733"
   xml:space="preserve"
   id="svg2"
   version="1.1"><metadata
     id="metadata8"><rdf:RDF><cc:Work
         rdf:about=""><dc:format>image/svg+xml</dc:format><dc:type
           rdf:resource="http://purl.org/dc/dcmitype/StillImage" /></cc:Work></rdf:RDF></metadata><defs
     id="defs6"><clipPath
       id="clipPath22"
       clipPathUnits="userSpaceOnUse"><path
         id="path20"
         d="M 0,867.411 H 2094.129 V 0 H 0 Z" /></clipPath></defs><g
     transform="matrix(1.3333333,0,0,-1.3333333,0,1156.548)"
     id="g10"><g
       transform="translate(485.5774,552.4262)"
       id="g12"><path
         id="path14"
         style="fill:#000000;fill-opacity:1;fill-rule:nonzero;stroke:none"
         d="m 0,0 h -166.318 v -91.445 h 146.531 v -62.577 h -146.531 v -147.062 h -67.917 V 63.642 L 0,63.642 Z" /></g><g
       id="g16"><g
         clip-path="url(#clipPath22)"
         id="g18"><g
           transform="translate(694.665,377.0139)"
           id="g24"><path
             id="path26"
             style="fill:#000000;fill-opacity:1;fill-rule:nonzero;stroke:none"
             d="m 0,0 c 0,43.856 -28.876,72.196 -65.778,72.196 -37.435,0 -66.314,-29.416 -66.314,-72.196 0,-42.78 28.346,-72.196 66.314,-72.196 C -33.156,-72.196 0,-49.193 0,0 M 66.849,-0.527 V -125.671 H 6.953 l -4.279,37.432 c -16.043,-27.275 -44.921,-43.318 -81.286,-43.318 -65.778,0 -120.326,52.41 -120.326,131.557 0,74.875 56.686,131.029 133.16,131.029 75.938,0 132.627,-50.279 132.627,-131.556" /></g><path
           id="path28"
           style="fill:#000000;fill-opacity:1;fill-rule:nonzero;stroke:none"
           d="m 805.351,616.069 h 67.384 V 251.343 h -67.384 z" /><g
           transform="translate(908.557,377.0139)"
           id="g30"><path
             id="path32"
             style="fill:#000000;fill-opacity:1;fill-rule:nonzero;stroke:none"
             d="m 0,0 c 0,75.403 56.151,131.029 132.625,131.029 65.243,0 113.373,-39.046 123.532,-96.803 H 190.379 C 180.755,58.295 161.503,71.659 134.23,71.659 95.19,71.659 66.846,42.252 66.846,0 c 0,-42.242 28.344,-72.196 67.384,-72.196 27.273,0 45.989,13.374 56.149,37.97 h 65.778 C 245.998,-91.983 197.868,-131.557 132.625,-131.557 56.151,-131.557 0,-75.403 0,0" /></g><g
           transform="translate(1397.333,377.0139)"
           id="g34"><path
             id="path36"
             style="fill:#000000;fill-opacity:1;fill-rule:nonzero;stroke:none"
             d="m 0,0 c 0,42.252 -28.343,72.196 -67.384,72.196 -39.038,0 -67.382,-29.944 -67.382,-72.196 0,-42.78 28.344,-72.196 67.382,-72.196 C -28.343,-72.196 0,-42.78 0,0 m -201.615,0 c 0,74.337 56.154,131.029 134.231,131.029 78.079,0 134.23,-56.692 134.23,-131.029 0,-74.327 -56.151,-131.557 -134.23,-131.557 -78.077,0 -134.231,57.23 -134.231,131.557" /></g><g
           transform="translate(1499.4656,251.3426)"
           id="g38"><path
             id="path40"
             style="fill:#000000;fill-opacity:1;fill-rule:nonzero;stroke:none"
             d="m 0,0 v 142.79 c 0,66.311 42.247,113.91 117.653,113.91 74.87,0 117.117,-47.599 117.117,-113.91 V 0 h -67.384 v 137.442 c 0,36.895 -16.575,59.888 -49.733,59.888 -33.156,0 -49.734,-22.993 -49.734,-59.888 L 67.919,0 Z" /></g><path
           id="path42"
           style="fill:#000000;fill-opacity:1;fill-rule:nonzero;stroke:none"
           d="m 1775.405,502.685 h 67.382 V 251.342 h -67.382 z m -9.092,81.288 c 0,23.004 19.254,41.715 42.782,41.715 22.996,0 42.248,-18.711 42.248,-41.715 0,-22.993 -19.252,-41.176 -42.248,-41.176 -23.528,0 -42.782,18.183 -42.782,41.176" /></g></g></g></svg>