<svg
  width="78"
  height="20"
  viewBox="0 0 78 20"
  fill="none"
  xmlns="http://www.w3.org/2000/svg"
>
  <path
    d="M54.5628 0.67753C54.5826 0.677053 54.6021 0.681505 54.6197 0.690479C54.6372 0.699454 54.6522 0.712663 54.6633 0.7289C54.6744 0.745138 54.6813 0.763884 54.6832 0.783425C54.6851 0.802965 54.6821 0.822675 54.6744 0.840753L48.7125 15.4838C48.6093 15.7364 48.4325 15.9525 48.2049 16.1045C47.9774 16.2565 47.7093 16.3373 47.4352 16.3367C47.1611 16.336 46.8934 16.254 46.6665 16.101C46.4397 15.9479 46.2639 15.731 46.1619 15.478L43.5239 8.92263C43.5152 8.90072 43.5001 8.88193 43.4805 8.86869C43.4609 8.85544 43.4378 8.84836 43.4141 8.84836C43.3904 8.84836 43.3673 8.85544 43.3477 8.86869C43.3281 8.88193 43.313 8.90072 43.3043 8.92263L40.6704 15.4762C40.5689 15.7299 40.3933 15.9475 40.1663 16.1011C39.9393 16.2547 39.6714 16.3372 39.3968 16.338C39.1223 16.3388 38.8538 16.2579 38.6259 16.1057C38.398 15.9535 38.2212 15.7369 38.118 15.4838L36.7161 12.055C36.7098 12.0406 36.7066 12.0251 36.7066 12.0095C36.7066 11.9938 36.7098 11.9783 36.7161 11.964L38.0112 8.99836C38.0203 8.97718 38.0354 8.95912 38.0547 8.94642C38.074 8.93373 38.0967 8.92696 38.1198 8.92696C38.143 8.92696 38.1656 8.93373 38.1849 8.94642C38.2042 8.95912 38.2194 8.97718 38.2284 8.99836L38.5371 9.75166L39.3559 11.7743C39.3647 11.796 39.3798 11.8146 39.3993 11.8278C39.4188 11.8409 39.4418 11.8479 39.4654 11.8479C39.4889 11.8479 39.5119 11.8409 39.5314 11.8278C39.5509 11.8146 39.5661 11.796 39.5749 11.7743L42.1385 5.4333C42.2409 5.18026 42.4171 4.96347 42.6443 4.81079C42.8716 4.65811 43.1396 4.57653 43.4138 4.57653C43.688 4.57653 43.956 4.65811 44.1833 4.81079C44.4105 4.96347 44.5867 5.18026 44.6891 5.4333L47.251 11.7743C47.2598 11.796 47.2749 11.8146 47.2944 11.8278C47.3139 11.8409 47.3369 11.8479 47.3605 11.8479C47.384 11.8479 47.407 11.8409 47.4265 11.8278C47.446 11.8146 47.4612 11.796 47.47 11.7743L51.9272 0.751509C51.936 0.729863 51.9511 0.711318 51.9706 0.698245C51.99 0.685172 52.0129 0.678165 52.0364 0.678118L54.5628 0.67753Z"
    fill="black"
  />
  <path
    d="M9.06562 5.12684C9.06551 5.14798 9.05966 5.16871 9.04869 5.18682C9.03772 5.20494 9.02203 5.21977 9.00329 5.22975C8.98455 5.23973 8.96344 5.2445 8.94221 5.24354C8.92097 5.24258 8.90038 5.23593 8.88263 5.2243C7.97171 4.63373 6.90574 4.32387 5.81845 4.33362C4.77837 4.33362 3.79613 4.58902 2.97917 5.07165C1.14161 6.15314 0 8.16994 0 10.3353C0 12.5276 1.10502 14.4863 2.95497 15.5743C3.76248 16.0516 4.85097 16.3375 5.86627 16.3375C7.00493 16.3375 8.07866 16.0158 8.95228 15.421C8.96997 15.409 8.99063 15.4019 9.01204 15.4007C9.03344 15.3994 9.05478 15.404 9.07378 15.4139C9.09277 15.4238 9.10869 15.4387 9.11984 15.4569C9.13099 15.4751 9.13693 15.496 9.13704 15.5173V15.9829C9.13704 16.0141 9.14948 16.0439 9.17162 16.0659C9.19376 16.088 9.22379 16.1003 9.2551 16.1003H11.5909C11.6222 16.1003 11.6522 16.088 11.6743 16.0659C11.6965 16.0439 11.7089 16.0141 11.7089 15.9829V0.117426C11.7089 0.086283 11.6965 0.056415 11.6743 0.0343933C11.6522 0.0123716 11.6222 0 11.5909 0H9.18367C9.15236 0 9.12234 0.0123716 9.1002 0.0343933C9.07806 0.056415 9.06562 0.086283 9.06562 0.117426V5.12684ZM9.06562 12.3192C9.06576 12.3458 9.05681 12.3717 9.04024 12.3926C8.33189 13.2921 7.26938 13.8258 6.17676 13.8258C4.19517 13.8258 2.6433 12.2928 2.6433 10.3353C2.6433 8.34491 4.11075 6.8442 6.05752 6.8442C6.63042 6.84835 7.19522 6.97921 7.711 7.2273C8.22678 7.47538 8.68062 7.83447 9.03964 8.27856C9.05669 8.29969 9.06587 8.32604 9.06562 8.35313V12.3192Z"
    fill="black"
  />
  <path
    d="M22.1308 5.16254C22.1307 5.18377 22.1247 5.20456 22.1136 5.22269C22.1025 5.24082 22.0866 5.25561 22.0677 5.26549C22.0488 5.27537 22.0276 5.27997 22.0063 5.27879C21.985 5.27762 21.9644 5.27072 21.9467 5.25883C21.0412 4.64528 19.9893 4.33468 18.8123 4.33468C17.7722 4.33468 16.7899 4.59009 15.973 5.07271C14.1348 6.15421 12.9932 8.171 12.9932 10.3363C12.9932 12.5287 14.0982 14.4874 15.9488 15.5753C16.7563 16.0527 17.8448 16.3386 18.8601 16.3386C19.9987 16.3386 21.0725 16.0168 21.9461 15.4221C21.9638 15.41 21.9844 15.403 22.0058 15.4017C22.0272 15.4005 22.0486 15.4051 22.0676 15.415C22.0866 15.4249 22.1025 15.4397 22.1136 15.4579C22.1248 15.4762 22.1307 15.497 22.1308 15.5184V15.984C22.1308 16.0151 22.1433 16.045 22.1654 16.067C22.1876 16.089 22.2176 16.1014 22.2489 16.1014H24.5847C24.616 16.1014 24.646 16.089 24.6681 16.067C24.6903 16.045 24.7027 16.0151 24.7027 15.984V4.6899C24.7027 4.65876 24.6903 4.62889 24.6681 4.60687C24.646 4.58484 24.616 4.57247 24.5847 4.57247H22.2489C22.2176 4.57247 22.1876 4.58484 22.1654 4.60687C22.1433 4.62889 22.1308 4.65876 22.1308 4.6899V5.16254ZM22.0594 12.3203C22.0596 12.3469 22.0506 12.3728 22.034 12.3937C21.3257 13.2931 20.2632 13.8268 19.17 13.8268C17.189 13.8268 15.6365 12.2938 15.6365 10.3363C15.6365 8.34597 17.1046 6.84526 19.0507 6.84526C19.6234 6.84955 20.1879 6.98048 20.7033 7.22857C21.2188 7.47665 21.6723 7.83567 22.0311 8.27962C22.0483 8.30068 22.0577 8.32703 22.0577 8.35419L22.0594 12.3203Z"
    fill="black"
  />
  <path
    d="M62.0525 5.16254C62.0523 5.18377 62.0464 5.20456 62.0353 5.22269C62.0241 5.24082 62.0083 5.25561 61.9894 5.26549C61.9705 5.27537 61.9493 5.27997 61.928 5.27879C61.9066 5.27762 61.886 5.27072 61.8683 5.25883C60.9628 4.64528 59.911 4.33468 58.7339 4.33468C57.6938 4.33468 56.7116 4.59009 55.8947 5.07271C54.0571 6.15421 52.9155 8.171 52.9155 10.3363C52.9155 12.5287 54.0205 14.4874 55.8704 15.5753C56.678 16.0527 57.7664 16.3386 58.7817 16.3386C59.9204 16.3386 60.9941 16.0168 61.8678 15.4221C61.8855 15.41 61.9062 15.403 61.9277 15.4017C61.9491 15.4005 61.9705 15.4051 61.9895 15.4151C62.0085 15.4251 62.0244 15.44 62.0355 15.4583C62.0466 15.4766 62.0525 15.4976 62.0525 15.519V15.9846C62.0525 16.0157 62.065 16.0456 62.0871 16.0676C62.1092 16.0896 62.1393 16.102 62.1706 16.102H64.5063C64.5376 16.102 64.5677 16.0896 64.5898 16.0676C64.612 16.0456 64.6244 16.0157 64.6244 15.9846V4.6899C64.6244 4.65876 64.612 4.62889 64.5898 4.60687C64.5677 4.58484 64.5376 4.57247 64.5063 4.57247H62.1706C62.1393 4.57247 62.1092 4.58484 62.0871 4.60687C62.065 4.62889 62.0525 4.65876 62.0525 4.6899V5.16254ZM61.9811 12.3203C61.9812 12.3469 61.9723 12.3728 61.9557 12.3937C61.2474 13.2931 60.1849 13.8268 59.0922 13.8268C57.1106 13.8268 55.5588 12.2938 55.5588 10.3363C55.5588 8.34597 57.0262 6.84526 58.9724 6.84526C59.5454 6.84937 60.1103 6.98021 60.6262 7.22829C61.1421 7.47637 61.596 7.83549 61.9551 8.27962C61.9722 8.30076 61.9813 8.3271 61.9811 8.35419V12.3203Z"
    fill="black"
  />
  <path
    d="M35.419 4.57137H37.9572C37.9769 4.57131 37.9962 4.57611 38.0135 4.58535C38.0308 4.5946 38.0455 4.60799 38.0563 4.62431C38.0671 4.64063 38.0736 4.65938 38.0753 4.67884C38.077 4.6983 38.0737 4.71787 38.0659 4.73577L31.4322 19.929C31.4231 19.9499 31.4079 19.9677 31.3888 19.9802C31.3696 19.9927 31.3471 19.9994 31.3242 19.9994H28.7606C28.741 19.9994 28.7217 19.9945 28.7045 19.9852C28.6873 19.976 28.6727 19.9626 28.6619 19.9463C28.6512 19.9299 28.6448 19.9112 28.6431 19.8918C28.6415 19.8724 28.6447 19.8529 28.6526 19.835L30.8715 14.8027C30.8785 14.7874 30.8821 14.7708 30.8821 14.754C30.8821 14.7372 30.8785 14.7206 30.8715 14.7053L26.0901 4.73929C26.0816 4.72142 26.0777 4.70168 26.0789 4.68192C26.08 4.66216 26.0862 4.64301 26.0968 4.62625C26.1074 4.6095 26.1221 4.59568 26.1395 4.58608C26.1569 4.57649 26.1765 4.57143 26.1964 4.57137H28.7866C28.8089 4.57133 28.8308 4.57759 28.8497 4.58944C28.8686 4.60129 28.8838 4.61823 28.8934 4.63831L32.1252 11.4302C32.1349 11.4508 32.1503 11.4681 32.1696 11.4801C32.1889 11.4921 32.2113 11.4983 32.2341 11.4979C32.2569 11.4975 32.2791 11.4906 32.298 11.478C32.3169 11.4654 32.3317 11.4476 32.3407 11.4267L35.3128 4.64183C35.3218 4.62119 35.3366 4.60357 35.3555 4.59108C35.3743 4.57859 35.3964 4.57175 35.419 4.57137Z"
    fill="black"
  />
  <path
    d="M75.2355 4.64298L72.2646 11.4261C72.2556 11.4468 72.2408 11.4644 72.2219 11.4769C72.2031 11.4894 72.181 11.4963 72.1583 11.4966C72.1357 11.497 72.1134 11.4909 72.0942 11.479C72.0749 11.4671 72.0595 11.45 72.0498 11.4296L68.8132 4.63945C68.8037 4.61947 68.7886 4.60258 68.7698 4.59074C68.751 4.5789 68.7292 4.57258 68.707 4.57252H66.1168C66.0969 4.57258 66.0773 4.57764 66.0599 4.58723C66.0425 4.59682 66.0278 4.61064 66.0172 4.6274C66.0066 4.64415 66.0004 4.6633 65.9993 4.68307C65.9981 4.70283 66.002 4.72257 66.0105 4.74044L70.7919 14.7047C70.799 14.72 70.8026 14.7368 70.8026 14.7537C70.8026 14.7706 70.799 14.7873 70.7919 14.8027L68.5724 19.835C68.5644 19.8529 68.5611 19.8725 68.5627 19.892C68.5642 19.9115 68.5707 19.9303 68.5814 19.9467C68.5921 19.963 68.6068 19.9765 68.6241 19.9858C68.6414 19.9951 68.6608 20 68.6804 20H71.2446C71.2677 20 71.2903 19.9933 71.3096 19.9807C71.3289 19.9681 71.3441 19.9501 71.3532 19.929L77.9904 4.73633C77.9981 4.71846 78.0013 4.69895 77.9995 4.67957C77.9978 4.66019 77.9913 4.64154 77.9805 4.6253C77.9697 4.60905 77.9551 4.59573 77.9378 4.58652C77.9206 4.5773 77.9014 4.57249 77.8818 4.57252H75.3436C75.3206 4.57255 75.2982 4.57924 75.279 4.59175C75.2598 4.60426 75.2447 4.62206 75.2355 4.64298Z"
    fill="black"
  />
</svg>
