<svg width="42" height="36" viewBox="0 0 42 36" fill="none" xmlns="http://www.w3.org/2000/svg">
<path d="M41.7175 7.97925e-05C41.7636 -0.00101746 41.8092 0.009217 41.8502 0.0298472C41.8913 0.0504774 41.9263 0.080843 41.9523 0.118169C41.9782 0.155495 41.9942 0.198589 41.9987 0.243508C42.0032 0.288426 41.9961 0.333737 41.9781 0.375292L28.0494 34.0365C27.8082 34.6171 27.3953 35.1139 26.8636 35.4632C26.3319 35.8126 25.7056 35.9984 25.0652 35.997C24.4248 35.9955 23.7995 35.8068 23.2694 35.4551C22.7394 35.1034 22.3288 34.6047 22.0904 34.023L15.9272 18.9537C15.9069 18.9034 15.8716 18.8602 15.8258 18.8297C15.7801 18.7993 15.726 18.783 15.6707 18.783C15.6154 18.783 15.5614 18.7993 15.5156 18.8297C15.4699 18.8602 15.4346 18.9034 15.4142 18.9537L9.26076 34.0189C9.02343 34.602 8.61324 35.1023 8.08296 35.4554C7.55269 35.8084 6.92659 35.9981 6.28524 36C5.64389 36.0019 5.01664 35.8159 4.4842 35.466C3.95176 35.116 3.5385 34.6182 3.2976 34.0365L0.0222805 26.1543C0.00758795 26.1213 0 26.0857 0 26.0497C0 26.0137 0.00758795 25.9781 0.0222805 25.9451L2.27708 20.8649L3.04799 19.1278C3.06918 19.0791 3.10454 19.0376 3.14965 19.0084C3.19477 18.9792 3.24765 18.9637 3.30174 18.9637C3.35582 18.9637 3.4087 18.9792 3.45382 19.0084C3.49893 19.0376 3.5343 19.0791 3.55549 19.1278L4.27675 20.8595L6.18954 25.5091C6.2101 25.5591 6.24544 25.6018 6.29102 25.632C6.33661 25.6621 6.39035 25.6782 6.44535 25.6782C6.50035 25.6782 6.55411 25.6621 6.59969 25.632C6.64528 25.6018 6.68062 25.5591 6.70118 25.5091L12.6905 10.9325C12.9298 10.3508 13.3414 9.85249 13.8723 9.50152C14.4033 9.15056 15.0293 8.96302 15.67 8.96302C16.3108 8.96302 16.9368 9.15056 17.4678 9.50152C17.9987 9.85249 18.4103 10.3508 18.6495 10.9325L24.6348 25.5091C24.6553 25.5591 24.6907 25.6018 24.7363 25.632C24.7819 25.6621 24.8356 25.6782 24.8906 25.6782C24.9456 25.6782 24.9993 25.6621 25.0449 25.632C25.0905 25.6018 25.1258 25.5591 25.1464 25.5091L35.5599 0.170142C35.5804 0.120381 35.6157 0.0777502 35.6611 0.0476986C35.7066 0.0176469 35.7602 0.00153953 35.815 0.0014308L41.7175 7.97925e-05Z" fill="black"/>
</svg>
