<?xml version="1.0" encoding="UTF-8"?>
<svg width="112px" height="112px" viewBox="0 0 112 112" version="1.1" xmlns="http://www.w3.org/2000/svg" xmlns:xlink="http://www.w3.org/1999/xlink">
    <!-- Generator: Sketch 63.1 (92452) - https://sketch.com -->
    <title>Group 4</title>
    <desc>Created with Sketch.</desc>
    <defs>
        <linearGradient x1="19.8232627%" y1="65.8067294%" x2="124.189238%" y2="65.8067294%" id="linearGradient-1">
            <stop stop-color="#FF9A6B" offset="0%"></stop>
            <stop stop-color="#FF7E80" offset="100%"></stop>
        </linearGradient>
        <linearGradient x1="50%" y1="0%" x2="50%" y2="100%" id="linearGradient-2">
            <stop stop-color="#320056" offset="0%"></stop>
            <stop stop-color="#320056" offset="100%"></stop>
        </linearGradient>
        <linearGradient x1="19.8232627%" y1="65.8067294%" x2="124.189238%" y2="65.8067294%" id="linearGradient-3">
            <stop stop-color="#D3D2F4" offset="0%"></stop>
            <stop stop-color="#FF7E80" offset="100%"></stop>
        </linearGradient>
    </defs>
    <g id="Page-1" stroke="none" stroke-width="1" fill="none" fill-rule="evenodd">
        <g id="Empty_state" transform="translate(-276.000000, -241.000000)">
            <g id="Group-4" transform="translate(250.000000, 217.000000)">
                <path d="M118.587681,107.741324 C103.684485,118.990596 112.347453,143.358986 82.7682539,141.398363 C64.4103264,140.181528 61.2016496,122.207092 54.4310545,116.638465 C45.8901025,109.613768 30.1515289,115.767896 24.9762994,98.2572959 C20.8734375,84.3750954 31.0407008,80.6707766 37.6878634,74.5485797 C47.0313032,65.9430464 41.6577065,51.8897055 48.827803,36.7194879 C55.9978995,21.5492703 95.9165793,17.2044109 106.42834,43.6528019 C112.864087,59.8456303 134.677047,48.9612771 141.112794,71.8741692 C147.548541,94.7870614 131.459174,98.0256271 118.587681,107.741324 Z" id="Path-5" fill="#EBEAF9" transform="translate(83.303994, 83.036994) rotate(40.000000) translate(-83.303994, -83.036994) "></path>
                <polygon id="Rectangle-10" fill="url(#linearGradient-1)" transform="translate(76.551183, 75.774594) rotate(8.000000) translate(-76.551183, -75.774594) " points="47.3466395 38.5276864 105.783731 38.5057698 105.755726 113.021502 47.3186349 113.043419"></polygon>
                <polygon id="Rectangle-8" fill="#FFFFFF" points="42.2287168 43.6099967 81.653171 43.6099967 97.4229526 59.3760488 97.4229526 114.881191 42.2287168 114.881191"></polygon>
                <g id="Resources-Icon" transform="translate(45.389997, 34.709997)">
                    <g id="Doc-Behind"></g>
                    <g id="Plus-Sign" transform="translate(35.461481, 49.458105)"></g>
                </g>
                <polygon id="Rectangle-9" fill-rule="nonzero" points="80.8511638 60.0184306 80.8511638 44.4654871 80.4117557 44.4654871 80.4117557 60.4854859 95.8977545 60.4854859 95.8977545 60.0184306"></polygon>
                <polygon id="Clip-18" points="114.929064 115.331526 134.443271 115.331526 134.443271 135.056936 114.929064 135.056936"></polygon>
                <path d="M49.973758,66.3594855 L90.023755,66.3594855 C90.318675,66.3594855 90.5577549,66.5985654 90.5577549,66.8934854 L90.5577549,71.6994851 C90.5577549,71.9944051 90.318675,72.233485 90.023755,72.233485 L49.973758,72.233485 C49.678838,72.233485 49.439758,71.9944051 49.439758,71.6994851 L49.439758,66.8934854 C49.439758,66.5985654 49.678838,66.3594855 49.973758,66.3594855 Z" id="Rectangle-11-Copy-2" fill="#EBEAF9"></path>
                <path d="M49.973758,76.5054847 L90.023755,76.5054847 C90.318675,76.5054847 90.5577549,76.7445646 90.5577549,77.0394847 L90.5577549,81.8454843 C90.5577549,82.1404043 90.318675,82.3794843 90.023755,82.3794843 L49.973758,82.3794843 C49.678838,82.3794843 49.439758,82.1404043 49.439758,81.8454843 L49.439758,77.0394847 C49.439758,76.7445646 49.678838,76.5054847 49.973758,76.5054847 Z" id="Rectangle-11-Copy-2" fill="#EBEAF9"></path>
                <path d="M49.973758,86.6514839 L90.023755,86.6514839 C90.318675,86.6514839 90.5577549,86.8905639 90.5577549,87.1854839 L90.5577549,91.9914835 C90.5577549,92.2864036 90.318675,92.5254835 90.023755,92.5254835 L49.973758,92.5254835 C49.678838,92.5254835 49.439758,92.2864036 49.439758,91.9914835 L49.439758,87.1854839 C49.439758,86.8905639 49.678838,86.6514839 49.973758,86.6514839 Z" id="Rectangle-11-Copy-2" fill="#EBEAF9"></path>
                <path d="M118.398055,113.932325 C118.349524,113.883015 117.750467,113.864597 117.500965,113.932325 C115.488478,114.47862 113.668292,117.05232 114.465247,115.073592 C115.262202,113.094864 111.568142,116.023239 113.443163,118.78103 C113.549273,118.937098 114.903908,120.328355 114.94647,120.371176 C115.318232,120.746984 115.597053,121.02884 115.782934,121.216744 C118.596689,124.061118 122.81732,128.327679 128.444829,134.016427 C129.816932,135.403842 132.041831,135.403842 133.414194,134.016427 C134.786297,132.629271 134.786297,130.380237 133.414194,128.992822 L118.398055,113.932325 Z" id="Fill-17" fill="url(#linearGradient-2)"></path>
                <path d="M102.509303,86.449268 C93.4376435,86.449268 86.0835133,93.8031386 86.0835133,102.875058 C86.0835133,111.946718 93.4376435,119.300588 102.509303,119.300588 C111.580963,119.300588 118.935093,111.946718 118.935093,102.875058 C118.935093,93.8031386 111.580963,86.449268 102.509303,86.449268" id="Fill-1" fill="url(#linearGradient-3)"></path>
                <path d="M89.6375122,104.055321 C89.0642238,104.055321 88.5994164,103.590514 88.5994164,103.017225 C88.5994164,94.7308849 95.3408105,87.9897502 103.626891,87.9897502 C104.20018,87.9897502 104.664987,88.4545576 104.664987,89.027846 C104.664987,89.6011344 104.20018,90.0659418 103.626891,90.0659418 C96.4855707,90.0659418 90.675608,95.8759045 90.675608,103.017225 C90.675608,103.590514 90.2108006,104.055321 89.6375122,104.055321" id="Fill-3" fill="#FFFFFF"></path>
                <path d="M102.509303,119.300692 C93.4376435,119.300692 86.0835133,111.946562 86.0835133,102.874902 C86.0835133,93.8032425 93.4376435,86.4493718 102.509303,86.4493718 C111.580963,86.4493718 118.935093,93.8032425 118.935093,102.874902 C118.935093,111.946562 111.580963,119.300692 102.509303,119.300692 L102.509303,119.300692 Z M117.607109,114.644054 C117.631245,114.619659 117.658235,114.600454 117.684966,114.58047 C120.186258,111.342131 121.677223,107.283436 121.677223,102.874902 C121.677223,92.2886607 113.095545,83.7069822 102.509303,83.7069822 C91.9230617,83.7069822 83.3413833,92.2886607 83.3413833,102.874902 C83.3413833,113.461144 91.9230617,122.042822 102.509303,122.042822 C106.89941,122.042822 110.940458,120.561459 114.17205,118.078594 L116.389423,115.861221 L117.607109,114.644054 Z" id="Fill-7" fill="#320056"></path>
            </g>
        </g>
    </g>
</svg>